<svg xmlns="http://www.w3.org/2000/svg" width="834" height="567" fill="none" viewBox="0 0 834 567">
  <path fill="#000" d="M417 958c50.43 0 98.764-8.973 143.493-25.411 5.5-2.021 2.673-7.959-.577-12.834-6.521-9.782-22.72 5.352-34.411 6.59-7.465.791-13.982 1.461-14.57 1.461-.189 0-1.188.209-2.78.572-25.728 5.857-52.02 4.125-78.407 4.125-1.342 0-46.967 5.368-49.651 5.368-10.705 0-18.586 11.304-29.196 9.885-9.227-1.233-18.221-2.537-20.456-3.175-3.757-1.074-21.247-7.157-29.522-10.065-8.947-4.473-27.376-14.224-29.523-17.445-3.648-5.473-8.898 4.018-4.109 8.526 6.264 5.404 13.452 9.663 21.322 12.214C329.049 950.917 372.197 958 417 958Zm304.879-324.209c-4.126 6.414-12.158 18.412-13.679 18.919-9.062 3.02-14.743 12.003-17.059 21.269l-1.057 4.227c-.671 2.684-.671 13.42-2.013 14.091-1.342.671-6.039 10.064-7.381 12.077-.432.649-1.025 2.555-1.637 4.893-1.482 5.661 4.209 15.349 8.347 11.21 6.15-6.15 11.438-13.136 13.839-21.496 1.586-5.525 2.935-10.497 2.935-11.381 0-1.61 7.605-14.538 11.407-20.8l5.31-9.863a37.739 37.739 0 0 0 4.474-16.185l.267-5.867a1.784 1.784 0 0 0-.067-.572c-.448-1.567-2.805-1.893-3.686-.522ZM1.097 551.065c.034 1.614.078 3.226.13 4.835.612 3.482 2.356 10.571 4.032 17.07 1.597 6.191 2.77 12.485 3.407 18.848a117.329 117.329 0 0 0 4 20.775c2.85 9.902 6.062 21.12 6.45 22.672.671 2.683 9.394 15.432 11.407 18.116 1.61 2.147 7.38 13.866 10.064 19.458 3.355 6.038 10.065 18.921 10.065 22.142 0 4.025 0 14.09 6.71 24.825 6.709 10.736 12.748 24.826 14.09 32.207 2.64 14.52 17.11 24.051 24.31 36.934l1.857 3.324 14.762 20.129 10.087 12.803c4.896 6.214 10.314 12 16.195 17.293l7.277 6.549a49.436 49.436 0 0 1 7.154 8.008 49.417 49.417 0 0 0 17.508 15.169l8.875 4.591c2.386 1.24 4.778-2.195 2.859-4.077-2.512-2.464-4.584-4.645-5.542-5.988-3.355-4.696-22.142-32.877-26.839-36.903-4.697-4.026-15.432-12.748-14.761-14.761.671-2.013 11.406-29.523 10.064-32.207-1.342-2.683-5.368-17.445-6.039-23.483-.671-6.039 4.026-26.168 0-31.536-4.025-5.368-11.406-14.761-9.393-16.103 17.624-11.75 33.519-26.157 34.997-47.287.499-7.13.779-12.456.564-13.1-.671-2.013-7.381-12.078-5.368-16.103 2.013-4.026 26.839-22.813 25.497-29.523-1.342-6.71-3.355-30.865-6.039-30.865-2.683 0-19.458-2.683-21.471-4.696-2.012-2.013-22.812-19.458-22.812-18.787 0 .671-14.091 10.735-15.433 8.722-1.342-2.013-5.367-12.748-7.38-13.419-2.013-.671-14.09-2.684-14.762-6.71-.398-2.393-2.55-14.564-4.364-24.791a22.424 22.424 0 0 0-9.643-14.741l-4.613-3.075a9.71 9.71 0 0 0-7.639-1.367c-5.419 1.29-10.81-2.232-11.807-7.713l-1.883-10.357a19.686 19.686 0 0 0-.908-3.316L55.3 470.68a19.229 19.229 0 0 0-30.045-8.337l-3.861 3.089a20.372 20.372 0 0 0-7.646 15.907c0 4.935-1.857 9.652-4.847 13.577-2.274 2.984-4.185 5.896-3.875 6.826.2.601.718 3.71 1.358 7.873 2.15 13.977-4.406 27.403-5.287 41.45ZM294.54 147.099c1.013-1.068-.041-2.772-1.447-2.334-102.589 31.966-188.136 102.579-239.604 194.803-2.482 4.449-.566 13.004 1.788 8.486 3.938-7.559 8.078-15.619 8.794-17.409 1.342-3.355 18.787-19.458 23.484-22.142 1.1-.629 1.845-2.041 2.33-3.859 2.496-9.369 3.211-19.4 8.431-27.571 4.778-7.478 11.828-13.218 20.087-16.459 7.696-3.021 15.465-6.132 17.462-7.13 4.025-2.013 25.496-14.761 24.154-17.445-4.835-9.67 11.818-16.783 22.512-15.191 6.602.983 12.507 1.771 14.392 1.771 4.696 0 9.393-19.458 12.077-20.8 1.776-.888 7.04-6.733 10.706-11.005a27.139 27.139 0 0 0 3.494-5.226c5.573-10.798 17.291-16.606 29.425-15.959 2.138.114 3.822.128 4.685-.016 14.405-2.401 25.862-13.347 37.23-22.514ZM417 126c-20.341 0-40.341 1.46-59.902 4.281-17.301 2.495-33.684 9.073-48.795 17.861-10.288 5.144-30.998 15.701-31.535 16.774-5.248 10.495-8.942 19.16 1.58 13.968a263.756 263.756 0 0 0 5.699-2.9c9.6-5.034 25.048-12.897 35.663-15.094 5.591-2.013 17.176-6.038 18.787-6.038.9 0 5.752-.838 11.068-1.812 7.73-1.416 20.467-2.407 20.467-10.266 0-1.342 13.42-5.368 15.433-6.039 1.61-.536 8.722-3.354 12.077-4.696a49.184 49.184 0 0 1 20.617-2.263l2.669.276c4.147.429 8.327.436 12.475.021l13.891-1.389 16.103-.137A420.602 420.602 0 0 0 417 126Z"/>
  <path fill="#000" d="M363.383 159.444c-5.229-.384-14.012-.528-15.493 1.446-2.795 3.727 3.02 7.386 7.679 7.349 8.143-.064 17.42-.241 17.818-.639 2.346-2.346-2.024-5.99-5.195-6.966l-2.296-.707a11.324 11.324 0 0 0-2.513-.483Zm32.715 38.445 1.931 2.81c2.199 3.197 2.695 7.374.75 10.732-.465.802-.9 1.458-1.237 1.795-2.918 2.918 1.247 7.476 5.341 6.964l9.578-1.197a7.833 7.833 0 0 0 5.188-2.933c2.878-3.664 1.943-9.014-2.008-11.484l-2.342-1.463a9.54 9.54 0 0 1-1.817-1.46c-2.386-2.473-6.082-6.647-6.559-8.556-.112-.448-.343-.982-.653-1.563-1.826-3.425-6.669-2.825-8.496.6a5.55 5.55 0 0 0 .324 5.755Zm-11.522 2.417-7.934 4.463a4.87 4.87 0 0 0-2.373 3.223c-.734 3.424 2.28 6.48 5.715 5.793l4.793-.958a6.574 6.574 0 0 0 5.244-5.721l.331-2.978a3.892 3.892 0 0 0-5.776-3.822Z"/>
  <path fill="#000" fill-rule="evenodd" d="m376.976 302.902-14.03 14.029a32.282 32.282 0 0 0-7.443 11.611 32.274 32.274 0 0 1-15.075 17.266l-1.613.86a37.09 37.09 0 0 0-12.759 11.214l-15.027 21.11a30.846 30.846 0 0 0-4.897 24.955 30.847 30.847 0 0 1-1.214 18.082l-1.466 3.834a42.802 42.802 0 0 0 10.155 45.988l12.812 12.446 18.876 15.663a29.606 29.606 0 0 0 28.266 5.302 29.612 29.612 0 0 1 17.235-.453l1.249.345a33.87 33.87 0 0 0 18.964-.278l21.115-6.497a21.612 21.612 0 0 1 22.288 6.053l.717.782a18.807 18.807 0 0 0 11.897 5.996c10.216 1.076 17.68 10.148 16.766 20.38l-.801 8.97a27.958 27.958 0 0 0 4.944 18.521l9.21 13.158a71.892 71.892 0 0 1 6.438 11.226l1.736 3.778a76.183 76.183 0 0 1 6.958 31.81v1.618a67.06 67.06 0 0 1-4.1 23.092c-6.764 18.448-3.191 38.08 3.862 56.419.155.404.238.689.238.837 0 1.109.849 11.193 1.67 20.651a60.781 60.781 0 0 0 6.202 21.931l3.186 6.372a21.206 21.206 0 0 1 2.108 7.139c1.264 11.371 11.321 19.688 22.727 18.793l6.005-.471a27.428 27.428 0 0 0 14.034-5.197l38.516-28.147a32.139 32.139 0 0 0 10.954-14.201l.954-2.428a24.419 24.419 0 0 1 10.054-11.943 24.428 24.428 0 0 0 11.745-20.879 24.456 24.456 0 0 1 10.886-20.347l8.758-5.84a44.111 44.111 0 0 0 18.515-26.785l1.494-6.475a60.85 60.85 0 0 0 .862-22.858l-.458-3.007a76.738 76.738 0 0 1 8.04-47.48l7.145-13.496a66.8 66.8 0 0 1 13.134-17.275l9.441-8.931a29.346 29.346 0 0 0 8.87-17.07l3.288-22.464c1.543-10.544-8.311-19.168-18.557-16.24a14.678 14.678 0 0 1-16.754-6.79l-5.891-10.23a29.722 29.722 0 0 0-2.554-3.745l-11.999-15-11.712-14.443a122.356 122.356 0 0 1-14.395-22.337l-1.003-2.007a102.259 102.259 0 0 0-12.313-19.014l-4.213-5.148a13.637 13.637 0 0 1-1.171-1.673l-8.976-15.117c-1.434-2.415.307-5.473 3.116-5.473 1.069 0 2.083.472 2.772 1.289l17.238 20.47a61.114 61.114 0 0 1 5.661 7.927l8.93 14.884a54.495 54.495 0 0 0 11.58 13.605c9.421 7.948 16.695 18.755 17.862 31.025.028.295.043.534.043.709 0 .487.345 1.351.918 2.449 4.534 8.688 15.428 11.489 24.692 8.294a22.32 22.32 0 0 0 7.086-4.005c4.235-3.557 9.66-8.165 10.917-9.422.532-.532 1.86-2.055 3.553-4.042 7.352-8.628 14.793-20.095 11.208-30.848-.318-.954-.338-4.785-.254-8.725.099-4.701-1.641-9.274-4.966-12.599l-4.583-4.583a8.676 8.676 0 0 0-10.845-1.149 8.674 8.674 0 0 1-10.45-.778l-6.476-5.714-15.57-13.702a8.64 8.64 0 0 1-1.949-2.481l-3.146-6.006c-1.587-3.03.611-6.663 4.032-6.663 1.58 0 3.042.819 3.893 2.151 3.919 6.126 10.357 15.294 12.74 15.294 1.686 0 9.282 1.235 16.805 2.542 7.946 1.38 15.466 4.548 22.072 9.173 2.26 1.581 4.634 2.985 7.081 4.258 6.601 3.434 15.552 8.414 16.442 10.195 1.342 2.684 9.394 18.787 10.735 18.787 14.814 0 15.425 25.013 18.77 39.444.888 3.829 1.641 6.746 2.03 7.524 1.074 2.147 10.736 26.391 15.433 38.245.69 1.38 2.863.624 2.566-.89-1.316-6.697-2.566-13.841-2.566-16.555 0-4.294-5.815-32.207-8.723-45.626l-2.708-21.471c-41.765-111.767-130.222-200.757-241.637-243.238-6.973-2.659-21.358-8.457-21.358-.994 0 .82-4.183 3.001-7.752 4.682-1.904.896-3.435 2.441-4.245 4.383a8.164 8.164 0 0 1-7.537 5.025h-7.305c-3.45 0-2.809-5.527.57-6.226l1.369-.283c3.01-.623 3.819-4.897.745-4.897-2.684 0-18.787-2.684-20.129-2.684-11.758 0-23.546-2.936-34.671.873-2.054.703-3.617 1.339-4.245 1.811-.667.5-1.352 1.488-2.005 2.707-2.715 5.064-6.881 9.44-12.503 10.623l-.545.115a13.17 13.17 0 0 0-5.508 2.6l-2.917 2.334a8.12 8.12 0 0 0-2.466 9.355c1.71 4.274 6.62 6.25 10.897 4.546 2.892-1.153 5.502-2.087 6.324-2.087 2.013 0 10.736 2.684 11.407 5.368.258 1.034 2.292 2.733 4.78 4.466 4.28 2.98 10.082 1.35 12.735-3.14l.66-1.117a8.018 8.018 0 0 0-1.464-9.971 8.017 8.017 0 0 1-2.069-8.707l1.005-2.681c1.779-4.744 11.06-7.71 9.179-3.005a90.331 90.331 0 0 0-.911 2.393c-1.478 4.023.311 8.484 4.084 10.516a8.776 8.776 0 0 0 4.681 1.036c8.343-.496 21.742-1.383 23.681-1.867 2.147-.537-7.604 4.249-12.748 6.709l-.674.245a10.19 10.19 0 0 0-6.707 9.576c0 4.52-2.978 8.5-7.314 9.776l-1.052.309a11.663 11.663 0 0 1-6.115.126l-10.345-2.587-13.429-2.238a4.765 4.765 0 0 1-3.657-2.972l-1.348-3.468c-.936-2.405-4.255-2.619-5.491-.354-.552 1.012-.469 2.241.096 3.245 1.404 2.498 2.742 6.074 1.016 7.8-.843.843-2.128 1.714-3.513 2.515-3.768 2.179-7.749 3.991-11.467 6.254a78.49 78.49 0 0 1-20.998 8.902l-4.28 1.116-4.184 1.449c-5.153 1.783-5.791 8.812-1.045 11.495a6.33 6.33 0 0 1 3.216 5.512v1.552c0 2.237-.823 4.403-2.38 6.009-2.261 2.333-4.904 4.848-5.671 4.848-.811 0-7.284-1.276-12.717-2.382a16.624 16.624 0 0 0-9.24.746 16.499 16.499 0 0 0-10.551 13.853l-.102 1.08a12.926 12.926 0 0 1-1.68 5.246l-.653 1.127a11.503 11.503 0 0 0 3.407 15.22l1.565 1.356a20.18 20.18 0 0 0 19.235 4.012l11.694-3.341a17.386 17.386 0 0 0 10.565-8.537 17.4 17.4 0 0 1 5.162-5.913l5.668-4.094a14.362 14.362 0 0 0 4.718-5.813 14.37 14.37 0 0 1 13.132-8.534h5.423c11.928-1.326 23.924.298 35.486 3.516 2.554.711 4.573 1.18 5.443 1.18 1.987 0 5.813 6.621 8.755 12.509 1.499 3.001-.027 6.582-3.18 7.728l-1.078.392c-3.583 1.303-4.514 5.937-1.713 8.522a5.025 5.025 0 0 0 5.716.791c3.67-1.896 8.131-4.302 8.945-5.116.646-.646 2.781-2.295 4.915-3.896 2.379-1.785 3.807-4.573 3.807-7.547a9.295 9.295 0 0 0-5.47-8.472l-13.85-6.255a18.67 18.67 0 0 1-2.821-1.583l-10.907-7.436a3.484 3.484 0 0 1-1.153-4.435c1.013-2.026 3.662-2.561 5.36-1.062 1.12.989 2.161 1.929 2.674 2.441 1.342 1.342 27.509 10.736 28.851 11.407.809.404 3.193 5.151 5.084 9.189 1.103 2.356 2.404 4.615 3.947 6.709l5.521 7.493a7.89 7.89 0 0 0 4.054 2.867l.281.085c5.652 1.721 13.86-8.227 7.952-8.227-.697 0-.665-.671-.295-1.577 1.057-2.592 3.956-3.791 6.756-3.791 3.431 0 6.549 1.976 8.066 5.053 2.246 4.559 4.842 9.619 5.602 10.379.619.619 4.537 1.862 8.774 3.061 5.734 1.623 11.684 2.307 17.644 2.307h9.149c1.774 0 3.536.286 5.219.847l.165.055a16.221 16.221 0 0 1 10.897 12.884l.254 1.627a13.968 13.968 0 0 1-13.799 16.122h-6.63c-2.769 0-5.531-.273-8.246-.816l-16.046-3.209-14.591-5.051a10.967 10.967 0 0 0-5.813-.376l-10.826 2.24c-2.671.552-3.891 3.669-2.306 5.889 1.579 2.21.373 5.308-2.313 5.712-2.492.375-4.873.601-5.751.308-1.069-.356-5.542-1.322-9.739-2.194a15.117 15.117 0 0 1-9.13-5.847 14.973 14.973 0 0 0-10.581-6.042l-4.235-.423a17.63 17.63 0 0 1-4.918-1.225l-3.699-1.513a12.36 12.36 0 0 1-7.595-12.882l.105-.889a7.076 7.076 0 0 0-.12-2.362 7.056 7.056 0 0 0-6.031-5.478c-3.089-.375-6.119-.732-6.457-.732-.537 0-11.854.895-17.446 1.342l-18.631 1.433a36.757 36.757 0 0 0-14.232 4.087 36.755 36.755 0 0 1-15.737 4.172l-7.8.278a9.754 9.754 0 0 1-4.975-1.16 9.758 9.758 0 0 0-11.526 1.692Zm184.516-57.323 2.909-4.231a2.964 2.964 0 0 1 4.41-.538c2.217 1.949 5.796 5.023 7.208 5.964 2.923 1.949 6.518 3.587 9.487 1.709.749-.474 1.249-.858 1.249-1.038 0-.671-3.355-4.026-4.026-4.026-.671 0 6.71-6.038 8.723-6.038 2.013 0 2.013 4.696 2.013 6.038 0 1.342-6.039 4.026-5.368 4.026.671 0 3.355 1.342 12.077 3.355 8.723 2.013 9.394 3.355 14.091 6.71 4.696 3.355 9.393 5.367 12.077 6.709 2.684 1.342-2.684 6.039-6.039 6.039-3.355 0-8.722-3.355-14.09-4.026-5.368-.671-19.458-4.026-20.8-3.355-1.342.671-10.065 4.026-10.736 6.039-.671 2.013-12.748-1.342-13.419-2.013-.671-.671-1.342-6.038-1.342-8.051 0-.462-.11-1.157-.284-1.959-.843-3.9-.4-8.026 1.86-11.314Zm71.095 4.339-.305-3.655a6.342 6.342 0 0 1 6.321-6.869c1.996 0 4.076.9 4.527 2.844.147.635.177 1.28-.014 1.852-.671 2.013 4.697 8.723 8.052 11.407 3.355 2.684 17.445 11.406 20.8 14.761 3.355 3.355 12.077 17.445 12.077 20.8 0 3.355-9.393 1.342-13.419 1.342s-4.026-5.368-5.368-7.381c-1.342-2.013-15.432-15.432-17.445-19.458-1.108-2.216-5.669-5.195-9.79-7.493-3.026-1.687-5.148-4.697-5.436-8.15Z" clip-rule="evenodd"/>
  <path stroke="#232428" stroke-width="2" d="M417 958c229.75 0 416-186.25 416-416 0-51.223-9.258-100.284-26.192-145.6M417 958c50.43 0 98.764-8.973 143.493-25.411 5.5-2.021 2.673-7.959-.577-12.834-6.521-9.782-22.72 5.352-34.411 6.59-7.465.791-13.982 1.461-14.57 1.461-.189 0-1.188.209-2.78.572-25.728 5.857-52.02 4.125-78.407 4.125-1.342 0-46.967 5.368-49.651 5.368-10.705 0-18.586 11.304-29.196 9.885-9.227-1.233-18.221-2.537-20.456-3.175-3.757-1.074-21.247-7.157-29.522-10.065-8.947-4.473-27.376-14.224-29.523-17.445-3.648-5.473-8.898 4.018-4.109 8.526 6.264 5.404 13.452 9.663 21.322 12.214C329.049 950.917 372.197 958 417 958Zm0 0C191.901 958 8.56 779.216 1.228 555.9M417 126C187.25 126 1 312.25 1 542c0 3.029.032 6.051.097 9.065M417 126c-20.341 0-40.341 1.46-59.902 4.281-17.301 2.495-33.684 9.073-48.795 17.861-10.288 5.144-30.998 15.701-31.535 16.774-5.248 10.495-8.942 19.16 1.58 13.968a263.756 263.756 0 0 0 5.699-2.9c9.6-5.034 25.048-12.897 35.663-15.094 5.591-2.013 17.176-6.038 18.787-6.038.9 0 5.752-.838 11.068-1.812 7.73-1.416 20.467-2.407 20.467-10.266 0-1.342 13.42-5.368 15.433-6.039 1.61-.536 8.722-3.354 12.077-4.696a49.184 49.184 0 0 1 20.617-2.263l2.669.276c4.147.429 8.327.436 12.475.021l13.891-1.389 16.103-.137A420.602 420.602 0 0 0 417 126Zm0 0c178.527 0 330.789 112.459 389.808 270.4M1.097 551.065c.034 1.614.078 3.226.13 4.835m-.13-4.835c.881-14.047 7.437-27.473 5.287-41.45-.64-4.163-1.158-7.272-1.358-7.873-.31-.93 1.601-3.842 3.875-6.826 2.99-3.925 4.847-8.642 4.847-13.577a20.372 20.372 0 0 1 7.646-15.907l3.861-3.089A19.228 19.228 0 0 1 55.3 470.68l1.462 3.947a19.63 19.63 0 0 1 .908 3.316l1.883 10.357c.997 5.481 6.388 9.003 11.807 7.713A9.71 9.71 0 0 1 79 497.38l4.613 3.075a22.424 22.424 0 0 1 9.643 14.741c1.814 10.227 3.966 22.398 4.364 24.791.671 4.026 12.749 6.039 14.762 6.71 2.013.671 6.038 11.406 7.38 13.419 1.342 2.013 15.433-8.051 15.433-8.722 0-.671 20.8 16.774 22.812 18.787 2.013 2.013 18.788 4.696 21.471 4.696 2.684 0 4.697 24.155 6.039 30.865 1.342 6.71-23.484 25.497-25.497 29.523-2.013 4.025 4.697 14.09 5.368 16.103.215.644-.065 5.97-.564 13.1-1.478 21.13-17.373 35.537-34.997 47.287-2.013 1.342 5.368 10.735 9.393 16.103 4.026 5.368-.671 25.497 0 31.536.671 6.038 4.697 20.8 6.039 23.483 1.342 2.684-9.393 30.194-10.064 32.207-.671 2.013 10.064 10.735 14.761 14.761 4.697 4.026 23.484 32.207 26.839 36.903.958 1.343 3.03 3.524 5.542 5.988 1.919 1.882-.473 5.317-2.859 4.077l-8.875-4.591a49.417 49.417 0 0 1-17.508-15.169 49.436 49.436 0 0 0-7.154-8.008l-7.277-6.549a139.006 139.006 0 0 1-16.195-17.293L112.381 812.4l-14.762-20.129-1.857-3.324c-7.2-12.883-21.67-22.414-24.31-36.934-1.342-7.381-7.381-21.471-14.09-32.207-6.71-10.735-6.71-20.8-6.71-24.825 0-3.221-6.71-16.104-10.065-22.142-2.684-5.592-8.454-17.311-10.064-19.458-2.013-2.684-10.736-15.433-11.407-18.116-.388-1.552-3.6-12.77-6.45-22.672a117.329 117.329 0 0 1-4-20.775c-.637-6.363-1.81-12.657-3.407-18.848-1.676-6.499-3.42-13.588-4.031-17.07m-.131-4.835A48.092 48.092 0 0 0 1 554.077c0 .363.081.989.228 1.823m805.58-159.5 2.708 21.471c2.908 13.419 8.723 41.332 8.723 45.626 0 2.714 1.25 9.858 2.566 16.555.297 1.514-1.876 2.27-2.566.89-4.697-11.854-14.359-36.098-15.433-38.245-.389-.778-1.142-3.695-2.03-7.524-3.345-14.431-3.956-39.444-18.77-39.444-1.341 0-9.393-16.103-10.735-18.787-.89-1.781-9.841-6.761-16.442-10.195-2.447-1.273-4.821-2.677-7.081-4.258-6.606-4.625-14.126-7.793-22.072-9.173-7.523-1.307-15.119-2.542-16.805-2.542-2.383 0-8.821-9.168-12.74-15.294a4.627 4.627 0 0 0-3.893-2.151c-3.421 0-5.619 3.633-4.032 6.663l3.146 6.006a8.64 8.64 0 0 0 1.949 2.481l15.57 13.702 6.476 5.714a8.674 8.674 0 0 0 10.45.778 8.676 8.676 0 0 1 10.845 1.149l4.583 4.583c3.325 3.325 5.065 7.898 4.966 12.599-.084 3.94-.064 7.771.254 8.725 3.585 10.753-3.856 22.22-11.208 30.848-1.693 1.987-3.021 3.51-3.553 4.042-1.257 1.257-6.682 5.865-10.917 9.422a22.32 22.32 0 0 1-7.086 4.005c-9.264 3.195-20.158.394-24.692-8.294-.573-1.098-.918-1.962-.918-2.449 0-.175-.015-.414-.043-.709-1.167-12.27-8.441-23.077-17.862-31.025a54.495 54.495 0 0 1-11.58-13.605l-8.93-14.884a61.114 61.114 0 0 0-5.661-7.927l-17.238-20.47a3.626 3.626 0 0 0-2.772-1.289c-2.809 0-4.55 3.058-3.116 5.473l8.976 15.117c.348.586.739 1.145 1.171 1.673l4.213 5.148a102.259 102.259 0 0 1 12.313 19.014l1.003 2.007a122.356 122.356 0 0 0 14.395 22.337l11.712 14.443 11.999 15a29.722 29.722 0 0 1 2.554 3.745l5.891 10.23a14.678 14.678 0 0 0 16.754 6.79c10.246-2.928 20.1 5.696 18.557 16.24l-3.288 22.464a29.346 29.346 0 0 1-8.87 17.07l-9.441 8.931a66.8 66.8 0 0 0-13.134 17.275l-7.145 13.496a76.738 76.738 0 0 0-8.04 47.48l.458 3.007a60.85 60.85 0 0 1-.862 22.858l-1.494 6.475a44.109 44.109 0 0 1-18.515 26.785l-8.758 5.84a24.456 24.456 0 0 0-10.886 20.347 24.428 24.428 0 0 1-11.745 20.879 24.419 24.419 0 0 0-10.054 11.943l-.954 2.428a32.139 32.139 0 0 1-10.954 14.201l-38.516 28.147a27.428 27.428 0 0 1-14.034 5.197l-6.005.471c-11.406.895-21.463-7.422-22.727-18.792a21.205 21.205 0 0 0-2.108-7.14l-3.186-6.372a60.781 60.781 0 0 1-6.202-21.931c-.821-9.458-1.67-19.542-1.67-20.651 0-.148-.083-.433-.238-.837-7.053-18.339-10.626-37.971-3.862-56.419a67.06 67.06 0 0 0 4.1-23.092v-1.618a76.183 76.183 0 0 0-6.958-31.81l-1.736-3.778a71.892 71.892 0 0 0-6.438-11.226l-9.21-13.158a27.958 27.958 0 0 1-4.944-18.521l.801-8.97c.914-10.232-6.55-19.304-16.766-20.38a18.807 18.807 0 0 1-11.897-5.996l-.717-.782a21.612 21.612 0 0 0-22.288-6.053l-21.115 6.497a33.87 33.87 0 0 1-18.964.278l-1.249-.345a29.612 29.612 0 0 0-17.235.453 29.606 29.606 0 0 1-28.266-5.302l-18.876-15.663-12.812-12.446a42.802 42.802 0 0 1-10.155-45.988l1.466-3.834a30.847 30.847 0 0 0 1.214-18.082 30.846 30.846 0 0 1 4.897-24.955l15.027-21.11a37.09 37.09 0 0 1 12.759-11.214l1.613-.86a32.274 32.274 0 0 0 15.075-17.266 32.282 32.282 0 0 1 7.443-11.611l14.03-14.029a9.758 9.758 0 0 1 11.526-1.692 9.754 9.754 0 0 0 4.975 1.16l7.8-.278a36.755 36.755 0 0 0 15.737-4.172 36.757 36.757 0 0 1 14.232-4.087l18.631-1.433c5.592-.447 16.909-1.342 17.446-1.342.338 0 3.368.357 6.457.732a7.056 7.056 0 0 1 6.031 5.478c.172.775.213 1.573.12 2.362l-.105.889a12.36 12.36 0 0 0 7.595 12.882l3.699 1.513a17.62 17.62 0 0 0 4.918 1.225l4.235.423a14.973 14.973 0 0 1 10.581 6.042 15.117 15.117 0 0 0 9.13 5.847c4.197.872 8.67 1.838 9.739 2.194.878.293 3.259.067 5.751-.308 2.686-.404 3.892-3.502 2.313-5.712-1.585-2.22-.365-5.337 2.306-5.889l10.826-2.24a10.967 10.967 0 0 1 5.813.376l14.591 5.051 16.046 3.209c2.715.543 5.477.816 8.246.816h6.63a13.968 13.968 0 0 0 13.799-16.122l-.254-1.627a16.221 16.221 0 0 0-10.897-12.884l-.165-.055a16.503 16.503 0 0 0-5.219-.847h-9.149c-5.96 0-11.91-.684-17.644-2.307-4.237-1.199-8.155-2.442-8.774-3.061-.76-.76-3.356-5.82-5.602-10.379-1.517-3.077-4.635-5.053-8.066-5.053-2.8 0-5.699 1.199-6.756 3.791-.37.906-.402 1.577.295 1.577 5.908 0-2.3 9.948-7.952 8.227l-.281-.085a7.89 7.89 0 0 1-4.054-2.867l-5.521-7.493c-1.543-2.094-2.844-4.353-3.947-6.709-1.891-4.038-4.275-8.785-5.084-9.189-1.342-.671-27.509-10.065-28.851-11.407-.513-.512-1.554-1.452-2.674-2.441-1.698-1.499-4.347-.964-5.36 1.062a3.484 3.484 0 0 0 1.153 4.435l10.907 7.436a18.622 18.622 0 0 0 2.821 1.583l13.85 6.255a9.295 9.295 0 0 1 5.47 8.472c0 2.974-1.428 5.762-3.807 7.547-2.134 1.601-4.269 3.25-4.915 3.896-.814.814-5.275 3.22-8.945 5.116a5.025 5.025 0 0 1-5.716-.791c-2.801-2.585-1.87-7.219 1.713-8.522l1.078-.392c3.153-1.146 4.679-4.727 3.18-7.728-2.942-5.888-6.768-12.509-8.755-12.509-.87 0-2.889-.469-5.443-1.18-11.562-3.218-23.558-4.842-35.486-3.516h-5.423a14.37 14.37 0 0 0-13.132 8.534 14.362 14.362 0 0 1-4.718 5.813l-5.668 4.094a17.4 17.4 0 0 0-5.162 5.913 17.386 17.386 0 0 1-10.565 8.537l-11.694 3.341a20.18 20.18 0 0 1-19.235-4.012l-1.565-1.356a11.503 11.503 0 0 1-3.407-15.22l.653-1.127a12.926 12.926 0 0 0 1.68-5.246l.102-1.08a16.499 16.499 0 0 1 10.551-13.853 16.624 16.624 0 0 1 9.24-.746c5.433 1.106 11.906 2.382 12.717 2.382.767 0 3.41-2.515 5.671-4.848 1.557-1.606 2.38-3.772 2.38-6.009v-1.552a6.33 6.33 0 0 0-3.216-5.512c-4.746-2.683-4.108-9.712 1.045-11.495l4.184-1.449 4.28-1.116a78.49 78.49 0 0 0 20.998-8.902c3.718-2.263 7.699-4.075 11.467-6.254 1.385-.801 2.67-1.672 3.513-2.515 1.726-1.726.388-5.302-1.016-7.8-.565-1.004-.648-2.233-.096-3.245 1.236-2.265 4.555-2.051 5.491.354l1.348 3.468a4.765 4.765 0 0 0 3.657 2.972l13.429 2.238 10.345 2.587c2.013.503 4.124.459 6.115-.126l1.052-.309a10.191 10.191 0 0 0 7.314-9.776 10.19 10.19 0 0 1 6.707-9.576l.674-.245c5.144-2.46 14.895-7.246 12.748-6.709-1.939.484-15.338 1.371-23.681 1.867a8.776 8.776 0 0 1-4.681-1.036c-3.773-2.032-5.562-6.493-4.084-10.516.322-.877.634-1.702.911-2.393 1.881-4.705-7.4-1.739-9.179 3.005l-1.005 2.681a8.017 8.017 0 0 0 2.069 8.707 8.018 8.018 0 0 1 1.464 9.971l-.66 1.117c-2.653 4.49-8.455 6.12-12.735 3.14-2.488-1.733-4.522-3.432-4.78-4.466-.671-2.684-9.394-5.368-11.407-5.368-.822 0-3.432.934-6.324 2.087-4.277 1.704-9.187-.272-10.897-4.546a8.12 8.12 0 0 1 2.466-9.355l2.917-2.334a13.17 13.17 0 0 1 5.508-2.6l.545-.115c5.622-1.183 9.788-5.559 12.503-10.623.653-1.219 1.338-2.207 2.005-2.707.628-.472 2.191-1.108 4.245-1.811 11.125-3.809 22.913-.873 34.671-.873 1.342 0 17.445 2.684 20.129 2.684 3.074 0 2.265 4.274-.745 4.897l-1.369.283c-3.379.699-4.02 6.226-.57 6.226h7.305a8.164 8.164 0 0 0 7.537-5.025c.81-1.942 2.341-3.487 4.245-4.383 3.569-1.681 7.752-3.862 7.752-4.682 0-7.463 14.385-1.665 21.358.994C676.586 195.643 765.043 284.633 806.808 396.4Zm-84.929 237.391c-4.126 6.414-12.158 18.412-13.679 18.919-9.062 3.02-14.743 12.003-17.059 21.269l-1.057 4.227c-.671 2.684-.671 13.42-2.013 14.091-1.342.671-6.039 10.064-7.381 12.077-.432.649-1.025 2.555-1.637 4.893-1.482 5.661 4.209 15.349 8.347 11.21 6.15-6.15 11.438-13.136 13.839-21.496 1.586-5.525 2.935-10.497 2.935-11.381 0-1.61 7.604-14.538 11.407-20.8l5.31-9.863a37.739 37.739 0 0 0 4.474-16.185l.267-5.867a1.784 1.784 0 0 0-.067-.572c-.448-1.567-2.805-1.893-3.686-.522ZM294.54 147.099c1.013-1.068-.041-2.772-1.447-2.334-102.589 31.966-188.136 102.579-239.604 194.803-2.482 4.449-.566 13.004 1.788 8.486 3.938-7.559 8.078-15.619 8.794-17.409 1.342-3.355 18.787-19.458 23.484-22.142 1.1-.629 1.845-2.041 2.33-3.859 2.496-9.369 3.211-19.4 8.431-27.571 4.778-7.478 11.828-13.218 20.087-16.459 7.696-3.021 15.465-6.132 17.462-7.13 4.025-2.013 25.496-14.761 24.154-17.445-4.835-9.67 11.818-16.783 22.512-15.191 6.602.983 12.507 1.771 14.392 1.771 4.696 0 9.393-19.458 12.077-20.8 1.776-.888 7.04-6.733 10.706-11.005a27.139 27.139 0 0 0 3.494-5.226c5.573-10.798 17.291-16.606 29.425-15.959 2.138.114 3.822.128 4.685-.016 14.405-2.401 25.862-13.347 37.23-22.514Zm101.558 50.79 1.931 2.81c2.199 3.197 2.695 7.374.75 10.732-.465.802-.9 1.458-1.237 1.795-2.918 2.918 1.247 7.476 5.341 6.964l9.578-1.197a7.833 7.833 0 0 0 5.188-2.933c2.878-3.664 1.943-9.014-2.008-11.484l-2.342-1.463a9.54 9.54 0 0 1-1.817-1.46c-2.385-2.473-6.082-6.647-6.559-8.556-.112-.448-.343-.982-.653-1.563-1.826-3.425-6.669-2.825-8.496.6a5.55 5.55 0 0 0 .324 5.755Zm-11.522 2.417-7.934 4.463a4.87 4.87 0 0 0-2.373 3.223c-.734 3.424 2.28 6.48 5.715 5.793l4.793-.958a6.574 6.574 0 0 0 5.244-5.721l.331-2.978a3.892 3.892 0 0 0-5.776-3.822Zm-21.193-40.862c-5.229-.384-14.012-.528-15.493 1.446-2.795 3.727 3.02 7.386 7.679 7.349 8.143-.064 17.42-.241 17.818-.639 2.346-2.346-2.023-5.99-5.195-6.966l-2.296-.707a11.324 11.324 0 0 0-2.513-.483Zm201.018 81.904-2.909 4.231c-2.26 3.288-2.703 7.414-1.86 11.314.174.802.284 1.497.284 1.959 0 2.013.671 7.38 1.342 8.051.671.671 12.748 4.026 13.419 2.013.671-2.013 9.394-5.368 10.736-6.039 1.342-.671 15.432 2.684 20.8 3.355 5.368.671 10.735 4.026 14.09 4.026 3.355 0 8.723-4.697 6.039-6.039-2.684-1.342-7.381-3.354-12.077-6.709-4.697-3.355-5.368-4.697-14.091-6.71-8.722-2.013-11.406-3.355-12.077-3.355-.671 0 5.368-2.684 5.368-4.026 0-1.342 0-6.038-2.013-6.038s-9.394 6.038-8.723 6.038c.671 0 4.026 3.355 4.026 4.026 0 .18-.5.564-1.249 1.038-2.969 1.878-6.564.24-9.487-1.709-1.412-.941-4.991-4.015-7.208-5.964a2.964 2.964 0 0 0-4.41.538Zm67.881 4.915.305 3.655c.287 3.453 2.41 6.463 5.436 8.15 4.121 2.298 8.682 5.277 9.79 7.493 2.013 4.026 16.103 17.445 17.445 19.458 1.342 2.013 1.342 7.381 5.368 7.381s13.419 2.013 13.419-1.342-8.722-17.445-12.077-20.8c-3.355-3.355-17.445-12.077-20.8-14.761-3.355-2.684-8.723-9.394-8.052-11.407.191-.572.161-1.217.014-1.852-.451-1.944-2.531-2.844-4.527-2.844a6.342 6.342 0 0 0-6.321 6.869Z"/>
  <path stroke="#3B3C41" stroke-linecap="round" stroke-width="3" d="m451.531 177.302-36-175"/>
</svg>
